<?xml version="1.0" standalone="no"?>
<!DOCTYPE svg PUBLIC "-//W3C//DTD SVG 20010904//EN"
 "http://www.w3.org/TR/2001/REC-SVG-20010904/DTD/svg10.dtd">
<svg version="1.0" xmlns="http://www.w3.org/2000/svg"
 width="2000.000000pt" height="2000.000000pt" viewBox="0 0 2000.000000 2000.000000"
 preserveAspectRatio="xMidYMid meet">

<g transform="translate(0.000000,2000.000000) scale(0.100000,-0.100000)"
fill="#000000" stroke="none">
<path d="M13353 12777 c-23 -117 -65 -295 -93 -397 -51 -183 -51 -186 -40
-260 32 -225 41 -561 20 -771 -52 -521 -217 -1002 -492 -1435 -75 -118 -82
-134 -86 -190 -7 -101 47 -177 145 -203 85 -23 159 6 217 86 152 207 348 606
445 906 127 391 175 705 175 1137 0 366 -35 643 -121 960 -25 92 -108 342
-121 366 -4 7 -26 -83 -49 -199z"/>
<path d="M11835 8961 c-11 -5 -67 -39 -125 -75 -455 -290 -1035 -467 -1580
-482 l-185 -6 -132 -59 c-158 -71 -320 -135 -502 -199 l-134 -47 139 -27 c249
-47 387 -59 679 -60 300 0 450 14 712 65 256 50 489 121 728 223 232 99 576
294 629 356 35 42 49 94 43 152 -13 104 -87 168 -193 167 -32 0 -68 -4 -79 -8z"/>
<path d="M13535 8387 c-173 -45 -278 -181 -278 -362 1 -114 29 -182 107 -261
79 -79 147 -107 261 -107 150 0 270 75 337 211 29 59 33 74 32 156 0 81 -3 98
-30 156 -60 126 -173 205 -309 214 -41 3 -91 0 -120 -7z"/>
<path d="M9142 5319 c-110 -19 -207 -91 -258 -191 -36 -69 -45 -200 -20 -276
52 -155 179 -243 351 -244 92 -1 173 19 228 57 l37 26 0 139 0 140 -35 0 -34
0 -3 -122 -3 -123 -50 -25 c-74 -37 -188 -36 -267 3 -167 82 -217 292 -105
439 93 122 277 152 412 67 45 -28 48 -29 66 -13 27 25 24 38 -18 67 -76 52
-196 75 -301 56z"/>
<path d="M6960 5290 l0 -30 125 0 125 0 0 -325 0 -325 40 0 40 0 0 325 0 325
120 0 120 0 0 30 0 30 -285 0 -285 0 0 -30z"/>
<path d="M8089 5233 c-143 -311 -279 -611 -279 -617 0 -3 17 -6 38 -6 l37 0
41 93 41 92 199 2 199 3 40 -93 41 -92 42 -3 42 -3 -33 73 c-19 40 -92 200
-163 356 l-129 282 -38 0 -38 0 -40 -87z m165 -189 c42 -95 76 -175 76 -178 0
-3 -75 -6 -166 -6 -130 0 -165 3 -161 13 34 90 162 356 168 350 4 -4 41 -85
83 -179z"/>
<path d="M9960 4965 l0 -355 235 0 235 0 0 35 0 35 -200 0 -200 0 0 320 0 320
-35 0 -35 0 0 -355z"/>
<path d="M10820 4965 l0 -355 40 0 40 0 0 355 0 355 -40 0 -40 0 0 -355z"/>
<path d="M11390 4965 l0 -355 40 0 40 0 2 282 3 281 223 -281 c201 -254 226
-282 253 -282 l29 0 0 355 0 355 -35 0 -35 0 -2 -283 -3 -283 -224 283 c-213
269 -226 283 -258 283 l-33 0 0 -355z"/>
<path d="M12480 4965 l0 -355 250 0 250 0 0 35 0 35 -210 0 -210 0 0 130 0
130 180 0 180 0 0 30 0 30 -180 0 -180 0 0 130 0 130 205 0 205 0 0 30 0 30
-245 0 -245 0 0 -355z"/>
</g>
</svg>
