<?xml version="1.0" standalone="no"?>
<!DOCTYPE svg PUBLIC "-//W3C//DTD SVG 20010904//EN"
 "http://www.w3.org/TR/2001/REC-SVG-20010904/DTD/svg10.dtd">
<svg version="1.0" xmlns="http://www.w3.org/2000/svg"
 width="918.000000pt" height="680.000000pt" viewBox="0 0 918.000000 680.000000"
 preserveAspectRatio="xMidYMid meet">

<g transform="translate(0.000000,680.000000) scale(0.100000,-0.100000)"
fill="#000000" stroke="none">
<path d="M4175 5946 c-214 -53 -362 -271 -327 -482 32 -191 176 -336 366 -365
181 -28 368 69 448 234 163 331 -132 701 -487 613z m114 -353 l1 -61 -82 -53
c-128 -81 -137 -85 -78 -33 30 27 70 63 90 80 l34 32 7 128 c4 71 8 131 10
134 3 8 17 -158 18 -227z"/>
<path d="M3402 5608 c-11 -29 -23 -63 -27 -76 -5 -17 -12 -22 -23 -17 -106 42
-368 44 -501 5 -327 -97 -558 -328 -651 -651 -28 -95 -38 -289 -21 -395 47
-291 238 -548 506 -681 229 -114 512 -125 753 -28 171 69 336 208 434 365 54
86 101 187 90 194 -7 4 -153 56 -158 56 -1 0 -20 -37 -43 -83 -101 -203 -274
-341 -500 -398 -124 -31 -282 -24 -404 18 -120 42 -188 85 -283 178 -92 91
-149 181 -191 300 -26 74 -28 92 -28 230 0 138 2 156 28 230 40 115 100 209
186 296 87 87 181 146 296 185 72 25 94 28 220 29 86 0 156 -5 182 -13 l42
-12 -25 -72 c-13 -39 -22 -74 -19 -76 4 -5 400 83 437 97 13 5 -12 42 -129
186 -80 99 -146 181 -148 183 -2 2 -12 -21 -23 -50z"/>
<path d="M5205 5115 c-135 -36 -235 -93 -326 -184 -64 -64 -84 -93 -127 -181
-124 -256 -148 -603 -61 -886 30 -98 119 -278 175 -352 46 -62 48 -63 83 -57
52 10 194 55 205 66 6 5 9 31 7 59 l-2 50 63 0 c42 0 76 7 103 20 22 11 31 17
20 14 -146 -48 -221 -18 -334 134 -72 99 -118 189 -141 276 -19 77 -24 192 -8
202 4 3 8 -1 8 -9 0 -21 25 -38 44 -31 9 3 16 16 16 29 0 21 3 22 37 14 48
-10 53 -5 14 15 -42 22 -117 21 -127 -1 -6 -15 -8 -13 -14 12 -5 19 -8 -11 -9
-80 -1 -120 15 -201 49 -247 l21 -28 -31 0 c-59 0 -95 62 -111 191 -10 82 0
208 21 263 l10 28 20 -24 c12 -14 19 -18 20 -9 0 14 28 13 123 -5 31 -6 36 -4
31 9 -9 25 -72 50 -110 44 -44 -7 -45 12 -4 76 47 75 122 123 275 176 50 18
107 45 127 61 20 17 39 30 41 30 3 0 7 -19 11 -42 10 -64 49 -111 146 -177 95
-65 138 -109 159 -159 l14 -33 19 43 c10 23 26 51 35 61 15 16 15 23 -1 93
-33 139 -119 281 -226 370 -98 81 -240 125 -347 106 -32 -5 -60 -8 -62 -7 -2
2 23 11 55 21 43 12 79 15 139 11 264 -19 462 -214 518 -507 14 -75 14 -76 -9
-93 -48 -36 -75 -212 -54 -352 7 -44 12 -86 13 -92 0 -15 23 -17 32 -4 3 5 1
12 -4 15 -17 11 -34 149 -28 226 8 90 21 141 46 171 17 21 21 22 36 9 10 -8
24 -30 32 -48 7 -18 17 -30 22 -28 10 7 21 -51 21 -111 0 -48 18 -66 128 -123
47 -25 64 -39 68 -59 17 -90 36 -131 64 -146 35 -18 51 -47 75 -138 10 -37 22
-70 27 -73 4 -3 8 43 8 103 0 120 -22 232 -64 327 -14 31 -23 56 -20 56 12 0
76 -153 95 -230 19 -74 21 -103 16 -220 -7 -163 3 -192 29 -88 27 106 25 267
-5 373 -34 121 -71 189 -176 320 -114 142 -152 206 -199 339 -45 126 -87 195
-158 261 -85 79 -189 127 -291 135 -45 4 -95 12 -110 18 -36 15 -99 14 -162
-3z m625 -645 c6 -11 8 -20 6 -20 -3 0 -10 9 -16 20 -6 11 -8 20 -6 20 3 0 10
-9 16 -20z m29 -70 c0 -10 -3 -8 -9 5 -12 27 -12 43 0 25 5 -8 9 -22 9 -30z"/>
<path d="M3466 5041 c-3 -5 -28 -66 -55 -137 -27 -71 -90 -236 -140 -366 -50
-131 -91 -242 -91 -248 0 -5 17 -10 38 -10 l38 0 33 88 c18 48 80 211 138 362
58 151 107 285 110 298 5 20 1 22 -30 22 -20 0 -38 -4 -41 -9z"/>
<path d="M2954 4750 c-79 -118 -104 -163 -104 -187 l0 -33 99 0 100 0 3 -47 3
-48 53 -3 52 -3 0 50 c0 50 1 51 30 51 28 0 30 2 30 39 0 37 -2 40 -32 43
l-33 3 4 141 3 142 -51 3 -52 4 -105 -155z m98 -52 c-5 -85 -3 -82 -50 -83
-23 -1 -41 2 -40 5 9 22 84 140 89 140 3 0 4 -28 1 -62z"/>
<path d="M2571 4883 c-35 -18 -76 -71 -86 -114 -6 -24 -3 -27 39 -38 25 -6 47
-11 49 -11 3 0 7 13 10 29 8 40 33 61 71 61 46 0 70 -21 70 -62 0 -51 -32 -88
-144 -162 l-100 -68 0 -44 0 -44 175 0 175 0 0 40 0 39 -102 3 -103 3 67 43
c37 24 80 58 97 77 69 79 47 206 -43 249 -44 21 -131 20 -175 -1z"/>
<path d="M3537 4893 c-4 -3 -7 -24 -7 -45 l0 -38 120 0 121 0 -30 -37 c-61
-77 -120 -232 -121 -315 0 -27 2 -28 54 -28 l53 0 7 69 c9 99 39 186 91 263
32 48 45 77 45 103 l0 35 -163 0 c-90 0 -167 -3 -170 -7z"/>
<path d="M5253 4489 c-33 -10 -83 -61 -83 -85 0 -18 -3 -19 84 22 69 33 83 36
142 32 56 -3 63 -2 48 9 -42 31 -127 40 -191 22z"/>
<path d="M5240 4335 c-7 -8 -8 -15 -3 -15 5 0 15 -12 21 -26 16 -33 53 -30 62
6 4 14 11 24 16 24 5 -1 25 -5 44 -9 43 -9 30 7 -19 24 -48 16 -106 14 -121
-4z"/>
<path d="M5850 4086 c-6 -19 -16 -37 -23 -40 -7 -3 4 -3 24 0 26 4 52 -1 84
-15 58 -25 55 -25 55 -2 0 13 -20 32 -59 55 -32 20 -61 36 -64 36 -3 0 -11
-15 -17 -34z"/>
<path d="M5778 4033 c7 -3 16 -2 19 1 4 3 -2 6 -13 5 -11 0 -14 -3 -6 -6z"/>
<path d="M5636 3993 c-72 -159 -147 -232 -255 -249 -36 -6 -44 -3 -66 20 -29
32 -82 35 -116 7 -23 -19 -24 -19 -5 -40 14 -15 31 -21 61 -21 23 0 44 3 48 6
3 4 37 7 75 8 54 1 81 8 130 32 42 21 66 27 77 21 20 -11 53 0 90 31 l30 25 3
-37 c4 -44 -8 -61 -57 -84 -27 -13 -36 -23 -36 -42 0 -23 4 -25 45 -26 44 0
45 -1 48 -35 l3 -35 182 -55 182 -55 8 -115 c4 -63 6 -204 3 -314 -3 -173 -3
-186 5 -95 5 58 8 202 7 320 -3 205 -4 217 -27 260 -13 25 -32 70 -41 100 -14
46 -22 59 -56 77 -61 35 -133 31 -228 -13 -76 -35 -116 -40 -123 -17 -3 7 13
21 35 32 22 11 52 31 68 44 46 39 101 57 170 57 34 0 66 5 69 10 9 15 -78 51
-138 57 -56 5 -109 -13 -176 -62 -39 -29 -50 -30 -77 -11 -18 14 -18 16 18 53
34 35 36 39 20 50 -15 11 -11 18 42 69 38 35 51 54 38 50 -13 -5 -22 -3 -22 3
0 23 -18 9 -34 -26z m124 -208 c-27 -14 -36 -13 -25 4 3 6 16 11 28 11 21 -1
21 -1 -3 -15z m204 -98 c32 -18 42 -30 51 -67 7 -25 22 -64 34 -87 12 -24 18
-43 15 -43 -20 0 -78 48 -104 85 -16 23 -54 59 -85 79 -30 21 -55 41 -55 47 0
19 104 9 144 -14z"/>
<path d="M5760 3964 c-36 -14 -72 -32 -80 -41 -13 -14 -13 -14 5 -4 37 20 126
51 148 51 12 0 46 -9 76 -20 67 -26 78 -20 14 8 -77 33 -93 33 -163 6z"/>
<path d="M5255 3865 c-22 -8 -69 -14 -105 -15 -55 -1 -61 -3 -40 -11 33 -14
109 -5 162 20 49 22 41 25 -17 6z"/>
<path d="M5720 3460 c0 -91 -207 -194 -354 -175 -86 11 -125 25 -161 56 -38
33 -48 27 -15 -9 81 -87 310 -108 440 -42 75 39 124 114 113 174 -7 35 -23 33
-23 -4z"/>
<path d="M6321 3414 c0 -11 3 -14 6 -6 3 7 2 16 -1 19 -3 4 -6 -2 -5 -13z"/>
<path d="M6336 3330 c3 -36 14 -114 24 -175 32 -188 80 -563 89 -710 l10 -140
-4 180 c-3 185 -32 423 -91 747 -29 165 -36 189 -28 98z"/>
<path d="M3277 3263 c-4 -3 -7 -21 -7 -40 0 -18 -3 -33 -6 -33 -4 0 -24 16
-46 36 -31 27 -46 34 -71 32 -20 -2 -33 -9 -35 -20 -2 -10 41 -67 107 -142 87
-97 111 -131 111 -154 0 -18 13 -43 35 -69 19 -23 35 -45 35 -49 0 -19 132
-133 218 -189 l92 -60 37 -87 c20 -49 37 -87 39 -85 5 5 -55 159 -69 175 -6 8
-50 39 -97 70 -86 57 -210 170 -210 192 0 7 -16 30 -36 52 -26 29 -34 46 -30
61 8 29 14 65 9 50 -7 -19 -19 -16 -40 11 -10 13 -55 65 -100 115 -46 50 -83
98 -83 106 0 29 39 14 94 -36 l56 -51 0 28 c0 44 11 74 26 74 20 0 31 -27 44
-113 7 -43 16 -76 21 -75 4 2 18 19 31 38 31 46 52 46 56 -2 3 -33 7 -38 54
-58 l50 -22 -33 -28 c-19 -16 -30 -29 -25 -30 6 0 20 9 32 21 21 20 44 19 44
-1 0 -4 -16 -32 -35 -60 -20 -29 -34 -57 -33 -61 6 -16 78 94 78 118 0 22 3
24 25 19 14 -4 25 -5 25 -2 0 2 -34 37 -75 76 -87 85 -97 106 -65 132 26 21
13 25 -15 5 -27 -21 -14 -54 51 -125 30 -34 53 -62 50 -62 -3 0 -30 12 -60 27
-46 22 -55 31 -58 56 -2 17 -11 35 -21 41 -15 9 -22 6 -42 -16 -13 -16 -26
-28 -29 -28 -2 0 -7 19 -11 43 -3 23 -11 57 -16 75 -13 39 -53 65 -72 45z"/>
<path d="M3550 3194 c14 -10 41 -31 61 -48 19 -17 13 -10 -14 17 -26 26 -54
47 -60 47 -6 0 0 -7 13 -16z"/>
<path d="M3280 3088 c0 -16 5 -28 10 -28 13 0 13 20 0 40 -8 12 -10 9 -10 -12z"/>
<path d="M3680 3085 c13 -14 26 -25 28 -25 3 0 -5 11 -18 25 -13 14 -26 25
-28 25 -3 0 5 -11 18 -25z"/>
<path d="M4532 2910 c-29 -102 -60 -237 -69 -300 -21 -145 -13 -203 57 -433
88 -291 122 -460 136 -677 l7 -105 -584 3 c-320 1 -584 3 -585 5 -1 1 -79 278
-173 615 -260 933 -262 941 -285 975 -12 17 -37 40 -56 51 -34 21 -49 21 -800
24 -799 2 -809 2 -831 -40 -9 -17 -8 -18 10 -9 29 16 1490 15 1543 -1 75 -22
98 -63 157 -274 29 -104 125 -445 213 -759 89 -314 166 -589 171 -612 19 -79
106 -73 -1015 -73 -1103 0 -1038 4 -1078 -63 -37 -59 -21 -124 39 -164 l34
-23 3114 0 c3339 0 3151 -3 3197 48 23 27 31 99 14 132 -7 13 -29 35 -47 47
l-34 23 -1472 0 -1471 0 -24 32 c-22 29 -23 39 -21 167 3 234 -25 405 -118
706 -28 88 -55 190 -62 228 -15 89 0 215 52 454 23 101 39 188 37 195 -3 7
-28 -71 -56 -172z m1710 -1639 l1428 -1 30 -27 c46 -42 44 -115 -5 -147 -23
-15 -293 -16 -3150 -16 -2851 0 -3127 1 -3150 16 -46 30 -51 103 -10 143 l25
26 1658 5 c911 3 1677 4 1702 3 25 0 687 -1 1472 -2z"/>
<path d="M3421 2999 c-6 -18 -10 -44 -10 -58 1 -21 3 -20 8 9 4 19 11 45 15
58 4 12 5 22 3 22 -3 0 -10 -14 -16 -31z"/>
<path d="M6073 2795 c0 -22 2 -30 4 -17 2 12 2 30 0 40 -3 9 -5 -1 -4 -23z"/>
<path d="M6062 2715 c0 -16 2 -22 5 -12 2 9 2 23 0 30 -3 6 -5 -1 -5 -18z"/>
<path d="M6052 2660 c0 -14 2 -19 5 -12 2 6 2 18 0 25 -3 6 -5 1 -5 -13z"/>
<path d="M6041 2614 c0 -11 3 -14 6 -6 3 7 2 16 -1 19 -3 4 -6 -2 -5 -13z"/>
<path d="M4031 2486 c-1 -16 87 -194 120 -243 18 -26 70 -87 116 -136 64 -67
83 -94 83 -116 0 -49 -57 -146 -119 -204 -93 -85 -155 -105 -224 -72 l-32 16
24 -21 c56 -49 187 -8 288 90 70 67 97 120 97 192 1 58 -9 83 -24 59 -6 -10
-24 3 -71 54 -98 105 -153 181 -208 290 -27 55 -50 96 -50 91z"/>
<path d="M5889 2222 c21 -39 115 -115 177 -143 88 -40 196 -56 268 -40 60 13
119 48 124 73 3 13 -5 12 -44 -8 -59 -30 -128 -31 -241 -4 -88 21 -200 72
-250 114 -36 30 -47 33 -34 8z"/>
<path d="M5827 2103 c-34 -117 -43 -354 -18 -453 45 -181 162 -320 269 -320
32 0 102 24 102 34 0 3 -20 3 -44 0 -34 -5 -55 -1 -88 15 -161 77 -250 333
-219 625 11 100 10 143 -2 99z"/>
<path d="M6857 2104 c-4 -4 -7 -20 -7 -36 0 -21 -5 -28 -19 -28 -17 0 -31 -25
-31 -57 0 -10 68 -13 305 -13 l305 0 0 23 c0 27 -10 41 -32 50 -9 3 -18 18
-20 34 l-3 28 -246 3 c-135 1 -248 -1 -252 -4z"/>
</g>
</svg>
